<?xml version="1.0" encoding="UTF-8"?>
<svg id="Layer_1" data-name="Layer 1" xmlns="http://www.w3.org/2000/svg" viewBox="0 0 234.57 266.58">
  <defs>
    <style>
      .cls-1 {
        fill: #4c1e1d;
      }
    </style>
  </defs>
  <g id="lQGusv.tif">
    <g>
      <path class="cls-1" d="M33.44,16.97c-5.48.03-10.99-.02-16.47,0-.01,5.48.03,10.99,0,16.48-4.62.02-10.88-.54-15.25-.03-.73.09-1.28.06-1.72.77v49.67c5.65.02,11.32-.03,16.97,0,.03,5.65-.02,11.32,0,16.97h49.91c.02-5.65-.03-11.32,0-16.97,5.65-.03,11.32.02,16.97,0v-16.47h66.88l.75,33.45h16.22v-50.42h-100.07c-.71.44-.69.99-.77,1.72-1.06,9.01.07,22.19.03,31.73-16.62.07-33.29.07-49.91,0-.07-16.79-.08-33.63,0-50.42,5.48-.03,10.99.02,16.47,0,0-5.48-.02-10.99,0-16.48,55.87-.26,111.82-.25,167.7,0,.01,5.48,0,10.99,0,16.48,5.65,0,11.32-.02,16.97,0,.13,27.95-.1,55.92,0,83.87h16.47V33.45c-5.48-.01-10.99.01-16.47,0-.03-5.48.02-10.99,0-16.48-5.65-.01-11.32.03-16.97,0-.02-5.65.01-11.32,0-16.97H33.44c-.01,5.65.02,11.32,0,16.97ZM83.85,134.29c11.14-.06,22.3.04,33.44,0v-16.22l.75-.75h32.69v-16.47h-49.91v16.47c-.64-.27-1.48.5-1.75.5h-15.22c-.02,5.48.03,10.99,0,16.47-4.63.02-10.88-.54-15.25-.03-.73.09-1.28.06-1.72.77v48.92c.44.71.99.69,1.72.77,4.37.51,10.62-.05,15.25-.03.03,5.48-.02,10.99,0,16.47h50.41c.02-5.48-.03-10.99,0-16.47,5.48-.03,10.99.02,16.47,0v-33.45h-16.47c-.04,11.14.05,22.31,0,33.45-16.79.08-33.62.09-50.41,0-.08-16.79-.08-33.63,0-50.42ZM201.13,134.29c-16.52.07-33.06-.11-49.59.07l-.6.4-.16,15.72.69.79h48.91c.71-.44.69-.99.77-1.72.51-4.37-.05-10.63-.03-15.25,5.65-.03,11.32.02,16.97,0v-16.47h-16.97c-.02,5.48.03,10.99,0,16.47ZM83.85,249.61c-.07-15.97.05-31.96,0-47.93h-15.97v47.93c5.32.02,10.66-.03,15.97,0,.03,5.65-.02,11.32,0,16.97h49.66c.71-.44.69-.99.77-1.72.51-4.37-.05-10.63-.03-15.25,5.48-.03,10.99.02,16.47,0v-47.93h-16.47c-.06,15.97.08,31.96,0,47.93-16.79.08-33.62.08-50.41,0Z"/>
      <path class="cls-1" d="M33.44,16.97c.02-5.65-.01-11.32,0-16.97h167.7c.01,5.65-.02,11.32,0,16.97,5.65.02,11.32-.02,16.97,0,.01,5.48-.03,10.99,0,16.48,5.48.01,10.99-.01,16.47,0v83.87h-16.47c-.1-27.95.13-55.92,0-83.87-5.65-.02-11.32,0-16.97,0,0-5.48.02-10.99,0-16.48-55.87-.25-111.82-.26-167.7,0-.01,5.48,0,10.99,0,16.48-5.48.01-10.99-.03-16.47,0-.08,16.79-.07,33.63,0,50.42,16.62.07,33.29.07,49.91,0,.04-9.53-1.08-22.71-.03-31.73.09-.73.06-1.28.77-1.72h100.07v50.42h-16.22l-.75-33.45h-66.88v16.47c-5.65.02-11.32-.03-16.97,0-.03,5.65.02,11.32,0,16.97H16.97c-.02-5.65.03-11.32,0-16.97-5.65-.03-11.32.02-16.97,0v-49.67c.44-.71.99-.69,1.72-.77,4.36-.51,10.62.05,15.25.03.03-5.48-.02-10.99,0-16.48,5.48-.01,10.99.03,16.47,0Z"/>
      <path class="cls-1" d="M83.85,134.29c.03-5.48-.02-10.99,0-16.47h15.22c.27,0,1.11-.77,1.75-.5v-16.47h49.91v16.47h-32.69l-.75.75v16.22c-11.14.04-22.3-.06-33.44,0-.08,16.79-.08,33.63,0,50.42,16.79.09,33.62.08,50.41,0,.05-11.14-.04-22.31,0-33.45h16.47v33.45c-5.48.02-10.99-.03-16.47,0-.03,5.48.02,10.99,0,16.47h-50.41c-.02-5.48.03-10.99,0-16.47-4.63-.02-10.88.54-15.25.03-.73-.09-1.28-.06-1.72-.77v-48.92c.44-.71.99-.69,1.72-.77,4.37-.51,10.62.05,15.25.03Z"/>
      <path class="cls-1" d="M83.85,249.61c-5.32-.03-10.66.02-15.97,0v-47.93h15.97c.05,15.97-.07,31.96,0,47.93,16.79.08,33.62.08,50.41,0,.08-15.97-.06-31.96,0-47.93h16.47v47.93c-5.48.02-10.99-.03-16.47,0-.02,4.63.54,10.88.03,15.25-.09.73-.06,1.28-.77,1.72h-49.66c-.02-5.65.03-11.32,0-16.97Z"/>
      <path class="cls-1" d="M201.13,134.29c.03-5.48-.02-10.99,0-16.47h16.97v16.47c-5.65.02-11.32-.03-16.97,0-.02,4.62.54,10.89.03,15.25-.09.73-.06,1.28-.77,1.72h-48.91l-.69-.79.16-15.72.6-.4c16.53-.18,33.07,0,49.59-.07Z"/>
    </g>
  </g>
</svg>