<?xml version="1.0" encoding="UTF-8"?>
<svg id="Layer_1" xmlns="http://www.w3.org/2000/svg" version="1.1" viewBox="0 0 424.58 527.53">
  <!-- Generator: Adobe Illustrator 29.2.1, SVG Export Plug-In . SVG Version: 2.1.0 Build 116)  -->
  <defs>
    <style>
      .st0 {
        fill: #4c1e1d;
      }

      .st1 {
        fill: #fff;
      }
    </style>
  </defs>
  <g id="lQGusv.tif">
    <g>
      <path class="st0" d="M-734,504.88c-5.48.03-10.99-.02-16.47,0-.01,5.48.03,10.99,0,16.48-4.62.02-10.88-.54-15.25-.03-.73.09-1.28.06-1.72.77v49.67c5.65.02,11.32-.03,16.97,0,.03,5.65-.02,11.32,0,16.97h49.91c.02-5.65-.03-11.32,0-16.97,5.65-.03,11.32.02,16.97,0v-16.47h66.88l.75,33.45h16.22v-50.42h-100.07c-.71.44-.69.99-.77,1.72-1.06,9.01.07,22.19.03,31.73-16.62.07-33.29.07-49.91,0-.07-16.79-.08-33.63,0-50.42,5.48-.03,10.99.02,16.47,0,0-5.48-.02-10.99,0-16.48,55.87-.26,111.82-.25,167.7,0,.01,5.48,0,10.99,0,16.48,5.65,0,11.32-.02,16.97,0,.13,27.95-.1,55.92,0,83.87h16.47v-83.87c-5.48-.01-10.99.01-16.47,0-.03-5.48.02-10.99,0-16.48-5.65-.01-11.32.03-16.97,0-.02-5.65.01-11.32,0-16.97h-167.7c-.01,5.65.02,11.32,0,16.97ZM-683.59,622.2c11.14-.06,22.3.04,33.44,0v-16.22l.75-.75h32.69v-16.47h-49.91v16.47c-.64-.27-1.48.5-1.75.5h-15.22c-.02,5.48.03,10.99,0,16.47-4.63.02-10.88-.54-15.25-.03-.73.09-1.28.06-1.72.77v48.92c.44.71.99.69,1.72.77,4.37.51,10.62-.05,15.25-.03.03,5.48-.02,10.99,0,16.47h50.41c.02-5.48-.03-10.99,0-16.47,5.48-.03,10.99.02,16.47,0v-33.45h-16.47c-.04,11.14.05,22.31,0,33.45-16.79.08-33.62.09-50.41,0-.08-16.79-.08-33.63,0-50.42ZM-566.3,622.2c-16.52.07-33.06-.11-49.59.07l-.6.4-.16,15.72.69.79h48.91c.71-.44.69-.99.77-1.72.51-4.37-.05-10.63-.03-15.25,5.65-.03,11.32.02,16.97,0v-16.47h-16.97c-.02,5.48.03,10.99,0,16.47ZM-683.59,737.52c-.07-15.97.05-31.96,0-47.93h-15.97v47.93c5.32.02,10.66-.03,15.97,0,.03,5.65-.02,11.32,0,16.97h49.66c.71-.44.69-.99.77-1.72.51-4.37-.05-10.63-.03-15.25,5.48-.03,10.99.02,16.47,0v-47.93h-16.47c-.06,15.97.08,31.96,0,47.93-16.79.08-33.62.08-50.41,0Z"/>
      <path class="st0" d="M-734,504.88c.02-5.65-.01-11.32,0-16.97h167.7c.01,5.65-.02,11.32,0,16.97,5.65.02,11.32-.02,16.97,0,.01,5.48-.03,10.99,0,16.48,5.48.01,10.99-.01,16.47,0v83.87h-16.47c-.1-27.95.13-55.92,0-83.87-5.65-.02-11.32,0-16.97,0,0-5.48.02-10.99,0-16.48-55.87-.25-111.82-.26-167.7,0-.01,5.48,0,10.99,0,16.48-5.48.01-10.99-.03-16.47,0-.08,16.79-.07,33.63,0,50.42,16.62.07,33.29.07,49.91,0,.04-9.53-1.08-22.71-.03-31.73.09-.73.06-1.28.77-1.72h100.07v50.42h-16.22l-.75-33.45h-66.88v16.47c-5.65.02-11.32-.03-16.97,0-.03,5.65.02,11.32,0,16.97h-49.91c-.02-5.65.03-11.32,0-16.97-5.65-.03-11.32.02-16.97,0v-49.67c.44-.71.99-.69,1.72-.77,4.36-.51,10.62.05,15.25.03.03-5.48-.02-10.99,0-16.48,5.48-.01,10.99.03,16.47,0Z"/>
      <path class="st0" d="M-683.59,622.2c.03-5.48-.02-10.99,0-16.47h15.22c.27,0,1.11-.77,1.75-.5v-16.47h49.91v16.47h-32.69l-.75.75v16.22c-11.14.04-22.3-.06-33.44,0-.08,16.79-.08,33.63,0,50.42,16.79.09,33.62.08,50.41,0,.05-11.14-.04-22.31,0-33.45h16.47v33.45c-5.48.02-10.99-.03-16.47,0-.03,5.48.02,10.99,0,16.47h-50.41c-.02-5.48.03-10.99,0-16.47-4.63-.02-10.88.54-15.25.03-.73-.09-1.28-.06-1.72-.77v-48.92c.44-.71.99-.69,1.72-.77,4.37-.51,10.62.05,15.25.03Z"/>
      <path class="st0" d="M-683.59,737.52c-5.32-.03-10.66.02-15.97,0v-47.93h15.97c.05,15.97-.07,31.96,0,47.93,16.79.08,33.62.08,50.41,0,.08-15.97-.06-31.96,0-47.93h16.47v47.93c-5.48.02-10.99-.03-16.47,0-.02,4.63.54,10.88.03,15.25-.09.73-.06,1.28-.77,1.72h-49.66c-.02-5.65.03-11.32,0-16.97Z"/>
      <path class="st0" d="M-566.3,622.2c.03-5.48-.02-10.99,0-16.47h16.97v16.47c-5.65.02-11.32-.03-16.97,0-.02,4.62.54,10.89.03,15.25-.09.73-.06,1.28-.77,1.72h-48.91l-.69-.79.16-15.72.6-.4c16.53-.18,33.07,0,49.59-.07Z"/>
    </g>
  </g>
  <g id="FeQWTa">
    <g>
      <path class="st0" d="M295.1,298.24h-4.15v.32h-1.38v.37s-.69,0-.69,0l-.05.35-.69.02v.32s-.32,0-.32,0v.37s-.69,0-.69,0v.32s-.37,0-.37,0v.37s-.32,0-.32,0v.32s-.32.02-.32.02l-.05.35h-.32s0,.32,0,.32h-.37s0,.37,0,.37l-.35.05-.02.64h-.32s0,.37,0,.37h-.37s0,.69,0,.69h-.32s0,1.01,0,1.01h-.37v1.43h-.32v4.46h.32s0,.37,0,.37h.37s0,.69,0,.69h.32s0,.69,0,.69h.37s0,.69,0,.69h.32s0,.37,0,.37h.37s0,.32,0,.32h.32s0,.37,0,.37h.37s.02.32.02.32h.29s0,.37,0,.37h.37s0,.37,0,.37h.37s0,.32,0,.32h.32s0,.37,0,.37h.69s0,.32,0,.32l.35.05.02.32h.98c.12.05.09.22.09.32h1.01v.37h1.38v.32h2.44v-.32h1.38c0-.13-.04-.29.08-.37h.98v-.32s.69,0,.69,0l.02-.32.35-.05v-.32s.69,0,.69,0v-.37s.32,0,.32,0v-.32s.37,0,.37,0v-.37s.37,0,.37,0v-.32s.29-.05.29-.05l.03-.32h.37s0-.37,0-.37h.32s0-.32,0-.32h.37s0-.37,0-.37h.32s.02-.64.02-.64l.35-.05v-.69s.32,0,.32,0v-.69s.37,0,.37,0v-1.38h.37s-.05-3.83-.05-3.83h-.32s0-1.06,0-1.06h-.37v-1.01h-.32s0-.69,0-.69h-.37s0-.37,0-.37l-.35-.05.02-.55-.08-.08h-.29s0-.38,0-.38h-.37s0-.32,0-.32h-.32s-.05-.35-.05-.35l-.32-.02v-.32s-.32,0-.32,0v-.37s-.37,0-.37,0v-.32s-.69,0-.69,0v-.37s-.32,0-.32,0v-.32s-1.06,0-1.06,0v-.37s-.69,0-.69,0v-.37s-1.06,0-1.06,0v-.32Z"/>
      <path class="st0" d="M295.1,298.24v.32h1.06v.37s.69,0,.69,0v.37s1.06,0,1.06,0v.32s.32,0,.32,0v.37s.69,0,.69,0v.32s.37,0,.37,0v.37s.32,0,.32,0v.32s.32.02.32.02l.05.35h.32s0,.32,0,.32h.37s0,.37,0,.37h.29s.08.09.08.09l-.02.55.35.05v.37s.37,0,.37,0v.69s.32,0,.32,0v1.01h.37v1.06h.32s.05,3.83.05,3.83h-.37v1.38h-.37s0,.69,0,.69h-.32s0,.69,0,.69l-.35.05-.02.64h-.32s0,.37,0,.37h-.37s0,.32,0,.32h-.32s0,.37,0,.37h-.37s-.03.32-.03.32l-.29.05v.32s-.38,0-.38,0v.37s-.37,0-.37,0v.32s-.32,0-.32,0v.37s-.69,0-.69,0v.32s-.35.05-.35.05l-.02.32h-.69s0,.32,0,.32h-.98c-.12.09-.08.24-.08.37h-1.38v.32h-2.44v-.32h-1.38v-.37h-1.01c0-.1.04-.27-.09-.31h-.98s-.02-.33-.02-.33l-.35-.05v-.32s-.69,0-.69,0v-.37s-.32,0-.32,0v-.32s-.37,0-.37,0v-.37s-.37,0-.37,0v-.37s-.29,0-.29,0l-.02-.32h-.37s0-.37,0-.37h-.32s0-.32,0-.32h-.37s0-.37,0-.37h-.32s0-.69,0-.69h-.37s0-.69,0-.69h-.32s0-.69,0-.69h-.37s0-.37,0-.37h-.32s0-4.46,0-4.46h.32v-1.43h.37v-1.01h.32s0-.69,0-.69h.37s0-.37,0-.37h.32s.02-.64.02-.64l.35-.05v-.37s.37,0,.37,0v-.32s.32,0,.32,0l.05-.35.32-.02v-.32s.32,0,.32,0v-.37s.37,0,.37,0v-.32s.69,0,.69,0v-.37s.32,0,.32,0v-.32s.69-.02.69-.02l.05-.35h.69s0-.37,0-.37h1.38v-.32h4.15ZM294.79,299.62h-3.51c0,.11.05.32-.09.36l-1.29-.05v.37h-1.06l-.02.32-.32.05-.02.32h-.63s-.06.37-.06.37h-.32s0,.32,0,.32h-.37s0,.37,0,.37h-.32s0,.69,0,.69h-.37s0,.32,0,.32h-.32s0,.37,0,.37h-.37s0,1.06,0,1.06l-.32-.03-.02.67-.35.05v1.7h-.32v2.82h.32v1.06l.35.05.02.64h.32s0,.69,0,.69h.37s0,.69,0,.69h.32s0,.37,0,.37h.37s0,.32,0,.32h.32s.02.32.02.32l.35.05v.32s.32,0,.32,0l.05.35.64.02.02.32.34.06v.31h1.07v.37s.07-.05.08-.05h.93v.37h4.2l.05-.35,1.31.02.08-.07v-.27s.6-.03.6-.03c.13-.04.08-.25.09-.36l.32.05v-.37s.69,0,.69,0v-.37s.37,0,.37,0v-.32s.32-.02.32-.02l.05-.35h.32s0-.32,0-.32l.35-.05.03-.64h.32s0-.37,0-.37h.37s0-.69,0-.69h.32s0-1.06,0-1.06h.37v-1.38h.32v-2.44h-.32v-1.38h-.37v-.74c-.07.06-.32.07-.32-.03v-.98h-.37s0-.37,0-.37h-.32s0-.32,0-.32h-.37s0-.37,0-.37h-.32s0-.32,0-.32h-.37s0-.37,0-.37h-.37s0-.32,0-.32h-.32s0-.37,0-.37h-.69s-.05-.35-.05-.35l-.69-.02v-.32s-.64,0-.64,0l-.08-.36-.98-.02v-.31Z"/>
      <path class="st1" d="M301.38,306.58v2.44h-.32v1.38h-.37v1.06h-.32s0,.69,0,.69h-.37s0,.37,0,.37h-.32s-.03.64-.03.64l-.35.05v.32s-.32,0-.32,0l-.05.35-.32.02v.32s-.37,0-.37,0v.37s-.69,0-.69,0v.37s-.32-.05-.32-.05c0,.11.05.32-.09.36l-.61.03v.27s-.08.07-.08.07l-1.31-.02-.05.35h-4.2v-.37h-.93s-.06.08-.08.05v-.37h-1.06v-.31s-.35-.06-.35-.06l-.02-.32-.64-.02-.05-.35h-.32s0-.32,0-.32l-.35-.05-.02-.32h-.32s0-.32,0-.32h-.37s0-.37,0-.37h-.32s0-.69,0-.69h-.37s0-.69,0-.69h-.32s-.02-.64-.02-.64l-.35-.05v-1.06h-.32v-2.82h.32v-1.7l.35-.05.02-.67.32.03v-1.06h.37v-.37s.32,0,.32,0v-.32s.37,0,.37,0v-.69s.32,0,.32,0v-.37s.37,0,.37,0v-.32s.32,0,.32,0l.06-.36h.63s.02-.33.02-.33l.32-.05.02-.32h1.06v-.37s1.29.05,1.29.05c.13-.04.08-.25.09-.36h3.51v.31s.99.02.99.02l.08.36h.64s0,.32,0,.32l.69.02.05.35h.69s0,.37,0,.37h.32s0,.32,0,.32h.37s0,.37,0,.37h.37s0,.32,0,.32h.32s0,.37,0,.37h.37s0,.32,0,.32h.32s0,.37,0,.37h.37v.98c0,.1.24.09.32.03v.74h.37v1.38h.32ZM300.97,307.96c.29-.43-.32-.3-.61-.31v.32h.61ZM299.99,304.14v-.32h-.32v.32h.32ZM299.99,308.34v-1.06h-.32v1.06h.32ZM299.62,311.79v-.32c-.11,0-.21,0-.32,0,0-.12,0-.25,0-.37-.26-.12-.54.2-.32.35.07.05.23.02.32.02,0,.11,0,.21,0,.32h.32ZM299.62,304.51v-.37h-.32v.37h.32ZM299.3,308.26v-.98h-.37v.98c0,.11.37.11.37,0ZM298.93,305.2v-1.06h-.32v1.06h.32ZM298.61,311.1v-.69h-.37c0,.23,0,.46,0,.69-.11,0-.21,0-.32,0,0-.23,0-.46,0-.69h-.37v.69c.12,0,.25,0,.37,0,0,.08-.03.36.03.37h.29c0-.12,0-.25,0-.37.12,0,.25,0,.37,0ZM298.61,308.26v-.98h-.37v.98c0,.11.37.11.37,0ZM298.24,305.2v-1.06h-.32v1.06h.32ZM297.92,303.45v-.69h-.37v.32s-.32,0-.32,0l-.05.35-.32.02v.32c-.33-.04-.47.05-.32.37h-.37v.37s-.37,0-.37,0v.32s-.32,0-.32,0v.37s-.37,0-.37,0v.32s-.32,0-.32,0v.37s-.37,0-.37,0v.32s-.32,0-.32,0v.37s-.37,0-.37,0v.37s-.37,0-.37,0v.69h.37v-.37s.37,0,.37,0v-.37s.32,0,.32,0v-.32s.37,0,.37,0v-.37s.32,0,.32,0v-.32s.37,0,.37,0v-.37s.31,0,.31,0v-.31s.38,0,.38,0v-.37s.32,0,.32,0v-.32s.35-.05.35-.05l.02-.32h.37s0-.37,0-.37h.32s0-.32,0-.32h.37ZM297.18,311.47v-1.06h-.32v1.06h.32ZM296.51,314.56c.15.21.47-.06.35-.32-.12,0-.25,0-.37,0,0-.11,0-.21,0-.32h-.32v.32c.11,0,.21,0,.32,0,0,.09-.02.25.02.32ZM296.86,301.38l-.05-.35c-.28-.11-.42.09-.27.33l.32.02ZM296.49,301.69v-.32h-.32v.32h.32ZM295.8,313.86v-.64h-.32v.64h.32ZM295.8,303.08v-1.01h-.32v1.01h.32ZM295.48,314.24v-.32h-.37v.32h.37ZM295.11,313.86v-.64h-.32v.64h.32ZM294.41,302.07v-1.06h-.32v1.06h.32ZM294.09,314.55v-1.01h-.37v.98l.09.07.28-.04ZM293.72,302.07v-1.06c-.59-.15-.35.67-.32,1.03l.32.03ZM293.35,314.24l.04-.61-.07-.07h-.28c0,.22,0,.45,0,.68-.11,0-.21,0-.32,0v-.69s-.37,0-.37,0v.69s.32.02.32.02l.05.29h.31c.01-.1,0-.21,0-.31.11,0,.21,0,.32,0ZM293.35,315.62v-.69h-.32v.69h.32ZM293.35,300.68v-.69s-.32,0-.32,0v.64l.32.05ZM293.03,302.07v-.37h-.32v.37h.32ZM293.03,301.38v-.37s-.32,0-.32,0l-.03.32.35.05ZM292.66,307.62l.05-.35h-.37v-.32s-.32-.02-.32-.02l-.05-.35h-.32s0-.37,0-.37h-.37s0-.32,0-.32h-.32s0-.37,0-.37h-.37s0-.32,0-.32l-.32-.02-.05-.32-.32-.02v-.32s-.32,0-.32,0v.69h.32s0,.32,0,.32l.32.02.05.35h.32s0,.32,0,.32l.35.05.02.32h.32s0,.32,0,.32h.37s0,.37,0,.37h.32s.05.35.05.35h.64ZM292.71,308.66v-.31s-.32-.04-.32-.04l-.05.35h.37ZM292.66,301.69v-.32h-.32v.32h.32ZM292.34,302.07c.03-.28,0-.45-.32-.35l-.05.35h.37ZM292.29,301.35c.14-.1.06-.44-.24-.34-.23.07-.04.54.24.34ZM292.28,308.97v-.31c-.21.03-.36.06-.25.31h.25ZM291.97,309.35v-.32h-.32v.32h.32ZM291.6,309.64l.05-.24h-.37s0,.27,0,.27l.32-.02ZM291.28,310.04v-.32h-.32v.32h.32ZM291.28,313.54v-1.06h-.32v1.06h.32ZM290.96,303.08v-1.01h-.37v1.01h.37ZM290.91,310.41v-.32l-.3.05v.22l.3.05ZM290.59,310.73v-.32h-.32v.32h.32ZM290.59,313.54v-1.06h-.32v1.06h.32ZM290.27,303.08v-.32c-.12,0-.25,0-.37,0,0-.12,0-.25,0-.37.1,0,.29.03.35-.05.02-.31-.08-.29-.35-.27,0,.11,0,.21,0,.32-.11,0-.21,0-.32,0v-.32s-.37.03-.37.03v.29c.29-.04.49.04.32.35l-.32.02v.32h.37v-.32c.11,0,.21,0,.32,0,0,.1-.01.21,0,.31h.37ZM290.22,311.1v-.32h-.32v.32h.32ZM289.9,314.24v-.32h-.32v.32h.32ZM289.9,313.17v-.69h-.32c0,.23.01.46,0,.69-.12,0-.25,0-.37,0v-.69s-.35.05-.35.05l-.02.64.32.02.05.35.32-.02s.05-.28.05-.35c.11,0,.21,0,.32,0ZM289.53,301.69v-.32h-.32v.32h.32ZM289.52,314.61v-.37s-.32,0-.32,0v.37h.32ZM289.16,301.35c.14-.1.06-.44-.24-.34-.23.07-.04.54.24.34ZM288.83,310.73v-1.01h-.32v1.01h.32ZM288.14,305.2v-.37c-.11,0-.21,0-.32,0,0-.11,0-.21,0-.32h.32s0-.37,0-.37h-.32l-.02.32c-.06.08-.26.05-.35.05,0-.12,0-.25,0-.37h-.32v.37c.11,0,.21,0,.32,0,0,.11,0,.21,0,.32-.11,0-.21,0-.32,0v.37h.32c0-.12,0-.25,0-.37.12,0,.25,0,.37,0,0,.12,0,.25,0,.37h.32ZM288.14,310.73v-1.01h-.32v1.01h.32ZM287.82,307.59l-.04-.29-.32-.02v.37s-.32,0-.32,0v.32h.32s.02-.32.02-.32h0s.34-.06.34-.06ZM287.76,308.33c.13-.27.05-.44-.26-.34l-.05.35h.31ZM287.45,310.73v-1.01h-.32v1.01h.32ZM287.08,311.47v-.37h-.32c0,.12,0,.25,0,.37-.28.01-.41-.06-.37.32h.37c0-.11,0-.21,0-.32.11,0,.21,0,.32,0ZM287.08,308.34v-.37h-.32v.37h.32ZM287.08,307.59v-.32h-.32v.32h.32ZM286.76,310.41v-.69h-.37c0,.23,0,.46,0,.69-.11,0-.21,0-.32,0,0-.23,0-.46,0-.69h-.37v.69c.12,0,.25,0,.37,0,0,.07-.03.31.03.32h.29c0-.11,0-.21,0-.32.12,0,.25,0,.37,0ZM286.76,304.51v-.37c-.12,0-.25,0-.37,0,0-.11,0-.21,0-.32h-.32v.32c.11,0,.21,0,.32,0,.01.34-.05.4.37.37ZM286.39,308.34v-1.06h-.32v1.06h.32ZM285.7,307.97v-.32h-.69v.32h.69Z"/>
      <path class="st0" d="M297.92,302.76v.69s-.37,0-.37,0v.32s-.32,0-.32,0v.37s-.37,0-.37,0l-.02.32-.35.05v.32s-.32,0-.32,0v.37s-.37,0-.37,0v.31s-.32,0-.32,0v.37s-.37,0-.37,0v.32s-.32,0-.32,0v.37s-.37,0-.37,0v.32s-.32,0-.32,0v.37s-.37,0-.37,0v.37s-.37,0-.37,0v-.69s.37,0,.37,0v-.37s.37,0,.37,0v-.37s.32,0,.32,0v-.32s.37,0,.37,0v-.37s.32,0,.32,0v-.32s.37,0,.37,0v-.37s.32,0,.32,0v-.32s.37,0,.37,0v-.37s.37,0,.37,0c-.15-.33-.01-.41.32-.37v-.32s.32-.02.32-.02l.05-.35h.32s0-.32,0-.32h.37Z"/>
      <polygon class="st0" points="289.9 304.51 289.9 304.83 290.22 304.85 290.26 305.18 290.59 305.2 290.59 305.52 290.96 305.52 290.96 305.89 291.28 305.89 291.28 306.21 291.65 306.21 291.65 306.58 291.97 306.58 292.02 306.93 292.34 306.96 292.34 307.27 292.71 307.27 292.66 307.62 292.02 307.62 291.97 307.27 291.65 307.27 291.65 306.9 291.28 306.9 291.28 306.58 290.96 306.58 290.94 306.26 290.59 306.21 290.59 305.89 290.27 305.89 290.22 305.54 289.9 305.52 289.9 305.2 289.58 305.2 289.58 304.51 289.9 304.51"/>
      <path class="st0" d="M299.3,307.27v.98c0,.11-.37.11-.37,0v-.98h.37Z"/>
      <path class="st0" d="M298.61,307.27v.98c0,.11-.37.11-.37,0v-.98h.37Z"/>
      <path class="st0" d="M289.58,313.17c0,.06,0,.32-.05.35l-.32.02-.05-.35-.32-.02.02-.64.35-.05v.69c.12,0,.25,0,.37,0,.01-.23,0-.46,0-.69h.32v.69c-.11,0-.21,0-.32,0Z"/>
      <path class="st0" d="M293.72,301v1.06l-.32-.03c-.03-.36-.26-1.18.32-1.03Z"/>
      <polygon class="st0" points="294.1 313.54 294.1 314.55 293.81 314.6 293.72 314.53 293.72 313.54 294.1 313.54"/>
      <rect class="st0" x="290.59" y="302.07" width=".37" height="1.01"/>
      <path class="st0" d="M289.9,302.76c-.11,0-.21,0-.32,0v.32s-.37,0-.37,0v-.32s.32-.02.32-.02c.16-.31-.03-.39-.32-.35v-.29s.37-.03.37-.03v.32c.11,0,.21,0,.32,0,0-.11,0-.21,0-.32.27-.02.37-.04.35.27-.06.08-.25.05-.35.05,0,.12,0,.25,0,.37.12,0,.25,0,.37,0v.32s-.37,0-.37,0c-.01-.1,0-.21,0-.31Z"/>
      <path class="st0" d="M293.03,314.24c0,.1.01.21,0,.31h-.31s-.05-.29-.05-.29l-.32-.02v-.69s.37,0,.37,0v.69c.11,0,.21,0,.32,0,0-.23,0-.46,0-.69h.29s.07.08.07.08l-.04.61c-.11,0-.21,0-.32,0Z"/>
      <rect class="st0" x="290.96" y="312.48" width=".32" height="1.06"/>
      <rect class="st0" x="294.1" y="301" width=".32" height="1.06"/>
      <rect class="st0" x="296.86" y="310.41" width=".32" height="1.06"/>
      <rect class="st0" x="299.67" y="307.27" width=".32" height="1.06"/>
      <rect class="st0" x="286.07" y="307.27" width=".32" height="1.06"/>
      <rect class="st0" x="290.27" y="312.48" width=".32" height="1.06"/>
      <rect class="st0" x="298.61" y="304.14" width=".32" height="1.06"/>
      <rect class="st0" x="297.92" y="304.14" width=".32" height="1.06"/>
      <rect class="st0" x="287.82" y="309.72" width=".32" height="1.01"/>
      <rect class="st0" x="295.48" y="302.07" width=".32" height="1.01"/>
      <rect class="st0" x="288.52" y="309.72" width=".32" height="1.01"/>
      <rect class="st0" x="287.13" y="309.72" width=".32" height="1.01"/>
      <path class="st0" d="M297.92,311.1c-.12,0-.25,0-.37,0v-.69h.37c0,.23,0,.46,0,.69.11,0,.21,0,.32,0,0-.23,0-.46,0-.69h.37v.69c-.12,0-.25,0-.37,0,0,.12,0,.25,0,.37h-.29c-.06,0-.03-.29-.03-.37Z"/>
      <path class="st0" d="M286.07,310.41c-.12,0-.25,0-.37,0v-.69h.37c0,.23,0,.46,0,.69.11,0,.21,0,.32,0,0-.23,0-.46,0-.69h.37v.69c-.12,0-.25,0-.37,0,0,.11,0,.21,0,.32h-.29c-.06,0-.03-.25-.03-.32Z"/>
      <path class="st0" d="M287.45,304.51c-.11,0-.21,0-.32,0v-.37s.32,0,.32,0c0,.12,0,.25,0,.37.09,0,.29.03.35-.05l.02-.32h.32s0,.37,0,.37h-.32c0,.11,0,.21,0,.32.11,0,.21,0,.32,0v.37s-.32,0-.32,0c0-.12,0-.25,0-.37-.12,0-.25,0-.37,0,0,.12,0,.25,0,.37h-.32s0-.37,0-.37c.11,0,.21,0,.32,0,0-.11,0-.21,0-.32Z"/>
      <rect class="st0" x="293.03" y="314.93" width=".32" height=".69"/>
      <rect class="st0" x="285.01" y="307.65" width=".69" height=".32"/>
      <path class="st0" d="M300.37,307.97v-.32c.29.02.9-.12.61.31h-.61Z"/>
      <polygon class="st0" points="293.35 299.99 293.35 300.68 293.03 300.63 293.03 299.99 293.35 299.99"/>
      <rect class="st0" x="295.48" y="313.23" width=".32" height=".64"/>
      <rect class="st0" x="294.79" y="313.23" width=".32" height=".64"/>
      <path class="st0" d="M286.39,304.14c-.11,0-.21,0-.32,0v-.32s.32,0,.32,0c0,.11,0,.21,0,.32.12,0,.25,0,.37,0v.37c-.42.03-.36-.03-.37-.37Z"/>
      <path class="st0" d="M296.49,314.24c-.11,0-.21,0-.32,0v-.32s.32,0,.32,0c0,.11,0,.21,0,.32.12,0,.25,0,.37,0,.12.26-.2.54-.35.32-.05-.07-.02-.23-.02-.32Z"/>
      <path class="st0" d="M292.34,302.07h-.37l.05-.35c.32-.1.35.07.32.35Z"/>
      <path class="st0" d="M299.3,311.47c-.09,0-.25.02-.32-.02-.21-.15.06-.47.32-.35,0,.12,0,.25,0,.37.11,0,.21,0,.32,0v.32s-.32,0-.32,0c0-.11,0-.21,0-.32Z"/>
      <polygon class="st0" points="292.71 308.34 292.71 308.66 292.34 308.66 292.39 308.31 292.71 308.34"/>
      <path class="st0" d="M296.86,301.38l-.32-.02c-.15-.24,0-.43.27-.33l.05.35Z"/>
      <polygon class="st0" points="287.82 307.59 287.48 307.64 287.45 307.97 287.13 307.97 287.13 307.65 287.45 307.65 287.45 307.27 287.77 307.3 287.82 307.59"/>
      <path class="st0" d="M288.92,301.01c.3-.1.37.25.24.34-.28.2-.46-.27-.24-.34Z"/>
      <path class="st0" d="M292.06,301.01c.3-.1.37.25.24.34-.28.2-.46-.27-.24-.34Z"/>
      <path class="st0" d="M287.76,308.33h-.31s.05-.34.05-.34c.31-.1.4.08.26.34Z"/>
      <polygon class="st0" points="293.03 301 293.03 301.38 292.68 301.32 292.71 301 293.03 301"/>
      <rect class="st0" x="292.71" y="301.69" width=".32" height=".37"/>
      <rect class="st0" x="295.1" y="313.92" width=".37" height=".32"/>
      <rect class="st0" x="286.76" y="307.96" width=".32" height=".37"/>
      <path class="st0" d="M286.76,311.47c0-.12,0-.25,0-.37h.32s0,.37,0,.37c-.11,0-.21,0-.32,0,0,.11,0,.21,0,.32h-.37c-.04-.38.09-.31.37-.32Z"/>
      <rect class="st0" x="299.3" y="304.14" width=".32" height=".37"/>
      <rect class="st0" x="289.18" y="314.26" width=".37" height=".32" transform="translate(-25.48 603.32) rotate(-89.92)"/>
      <rect class="st0" x="286.76" y="307.27" width=".32" height=".32"/>
      <rect class="st0" x="290.96" y="309.72" width=".32" height=".32"/>
      <rect class="st0" x="289.9" y="310.78" width=".32" height=".32"/>
      <rect class="st0" x="299.67" y="303.82" width=".32" height=".32"/>
      <rect class="st0" x="291.65" y="309.03" width=".32" height=".32"/>
      <rect class="st0" x="289.58" y="313.92" width=".32" height=".32"/>
      <rect class="st0" x="290.27" y="310.41" width=".32" height=".32"/>
      <rect class="st0" x="296.17" y="301.38" width=".32" height=".32"/>
      <rect class="st0" x="292.34" y="301.38" width=".32" height=".32"/>
      <rect class="st0" x="289.21" y="301.38" width=".32" height=".32"/>
      <polygon class="st0" points="291.65 309.4 291.6 309.64 291.28 309.67 291.28 309.4 291.65 309.4"/>
      <polygon class="st0" points="290.91 310.09 290.91 310.41 290.61 310.36 290.61 310.14 290.91 310.09"/>
      <path class="st0" d="M292.29,308.66v.31s-.26,0-.26,0c-.1-.26.04-.29.26-.31Z"/>
    </g>
  </g>
  <rect class="st0" x="292.66" y="307.52" width=".8" height=".87"/>
</svg>